<?xml version="1.0" encoding="UTF-8"?>
<svg xmlns="http://www.w3.org/2000/svg" xmlns:xlink="http://www.w3.org/1999/xlink" viewBox="0 0 96 96" width="96px" height="96px">
<g id="surface476482">
<path style=" stroke:none;fill-rule:nonzero;fill:rgb(32.156864%,60.000002%,85.882354%);fill-opacity:1;" d="M 14 12 L 44 12 C 45.105469 12 46 12.894531 46 14 L 46 44 C 46 45.105469 45.105469 46 44 46 L 14 46 C 12.894531 46 12 45.105469 12 44 L 12 14 C 12 12.894531 12.894531 12 14 12 Z M 14 12 "/>
<path style=" stroke:none;fill-rule:nonzero;fill:rgb(32.156864%,60.000002%,85.882354%);fill-opacity:1;" d="M 50.085938 43.914062 L 50.085938 14 C 50.085938 12.894531 50.980469 12 52.085938 12 L 82 12 C 83.105469 12 84 12.894531 84 14 L 84 43.914062 C 84 45.019531 83.105469 45.914062 82 45.914062 L 52.085938 45.914062 C 50.976562 45.914062 50.085938 45.023438 50.085938 43.914062 Z M 50.085938 43.914062 "/>
<path style=" stroke:none;fill-rule:nonzero;fill:rgb(32.156864%,60.000002%,85.882354%);fill-opacity:1;" d="M 14 50 L 44 50 C 45.105469 50 46 50.894531 46 52 L 46 82 C 46 83.105469 45.105469 84 44 84 L 14 84 C 12.894531 84 12 83.105469 12 82 L 12 52 C 12 50.894531 12.894531 50 14 50 Z M 14 50 "/>
<path style=" stroke:none;fill-rule:nonzero;fill:rgb(32.156864%,60.000002%,85.882354%);fill-opacity:1;" d="M 50 82 L 50 52 C 50 50.894531 50.894531 50 52 50 L 82 50 C 83.105469 50 84 50.894531 84 52 L 84 82 C 84 83.105469 83.105469 84 82 84 L 52 84 C 50.894531 84 50 83.105469 50 82 Z M 50 82 "/>
</g>
</svg>
